<?xml version="1.0" encoding="UTF-8" standalone="no"?>
<!-- Created with Inkscape (http://www.inkscape.org/) -->

<svg
   width="190.46225mm"
   height="190.35446mm"
   viewBox="0 0 190.46225 190.35446"
   version="1.1"
   id="svg5"
   inkscape:version="1.1.1 (1:1.1+202109281949+c3084ef5ed)"
   sodipodi:docname="logo.svg"
   xmlns:inkscape="http://www.inkscape.org/namespaces/inkscape"
   xmlns:sodipodi="http://sodipodi.sourceforge.net/DTD/sodipodi-0.dtd"
   xmlns="http://www.w3.org/2000/svg"
   xmlns:svg="http://www.w3.org/2000/svg">
  <sodipodi:namedview
     id="namedview7"
     pagecolor="#ffffff"
     bordercolor="#666666"
     borderopacity="1.0"
     inkscape:pageshadow="2"
     inkscape:pageopacity="0.0"
     inkscape:pagecheckerboard="0"
     inkscape:document-units="mm"
     showgrid="false"
     inkscape:zoom="0.75187991"
     inkscape:cx="382.37489"
     inkscape:cy="234.74493"
     inkscape:window-width="1920"
     inkscape:window-height="1016"
     inkscape:window-x="0"
     inkscape:window-y="27"
     inkscape:window-maximized="1"
     inkscape:current-layer="layer1"
     fit-margin-top="0"
     fit-margin-left="0"
     fit-margin-right="0"
     fit-margin-bottom="0" />
  <defs
     id="defs2" />
  <g
     inkscape:label="Capa 1"
     inkscape:groupmode="layer"
     id="layer1"
     transform="translate(-1.6677987,-86.59845)">
    <path
       style="fill:#e7ab53;stroke-width:0.264583"
       d="M 89.47442,276.78921 C 47.682834,273.16767 13.728924,243.95962 4.1381526,203.3807 c -4.97294202,-21.04071 -2.381155,-43.69316 7.2631634,-63.48068 9.147707,-18.76861 24.795685,-34.41659 43.564301,-43.564301 26.637644,-12.983025 57.196623,-12.983025 83.834273,0 32.40041,15.791761 53.30387,49.265791 53.33013,85.400881 0.004,6.03915 -0.44446,10.59508 -1.55496,15.78335 -0.30678,1.43325 -0.49641,2.70522 -0.42139,2.82659 0.075,0.12137 -0.1675,1.50855 -0.5389,3.08263 -8.26741,35.03831 -35.26797,62.33946 -70.0655,70.84549 -7.35011,1.79669 -13.24077,2.5309 -21.3436,2.66025 -3.274219,0.0523 -7.203282,-0.0133 -8.73125,-0.1457 z m 13.09687,-0.51731 c 23.8866,-1.37337 44.82361,-11.11805 62.31607,-29.00365 7.34661,-7.51173 12.38378,-14.50417 17.06866,-23.69417 1.98992,-3.90349 2.2288,-4.70428 0.50093,-1.67923 -5.38514,9.42798 -14.80156,17.84001 -26.92512,24.05322 -10.83754,5.55412 -23.89181,9.46177 -37.35012,11.18032 -4.65183,0.59402 -16.33251,0.6787 -19.579165,0.14195 -2.025029,-0.33478 -4.70521,-0.9476 -5.532001,-1.26487 -0.269812,-0.10353 -0.592757,0.25131 -1.050084,1.1538 -0.895797,1.76777 -3.235632,3.8569 -5.101733,4.5551 -3.241455,1.21278 -7.47436,1.21038 -12.118932,-0.007 -3.038187,-0.79624 -3.18665,-0.96179 -1.053788,-1.17503 4.619532,-0.46185 7.872825,-1.45838 9.60697,-2.94274 1.151597,-0.98572 2.244879,-2.76961 2.102104,-3.42996 -0.04494,-0.20784 -1.48159,-1.04663 -3.19256,-1.86398 l -3.110857,-1.48609 -1.190654,1.09751 c -0.654857,0.60362 -1.495145,1.21327 -1.867302,1.35476 -1.02344,0.38911 -3.246613,0.28028 -4.875538,-0.23867 l -1.455209,-0.46361 1.345123,-0.32983 c 2.631001,-0.64512 3.740023,-1.80904 3.403463,-3.57192 -0.115787,-0.60648 -0.503105,-1.06371 -1.451367,-1.71331 -4.447696,-3.04689 -8.415081,-8.00721 -14.6867,-18.36237 -1.299988,-2.14644 -2.424325,-3.90033 -2.498527,-3.89754 -0.0742,0.003 -1.087408,1.46103 -2.251575,3.24054 -3.462539,5.29275 -7.556063,8.95822 -12.216278,10.93884 -1.882926,0.80025 -1.855968,0.66478 -0.834774,4.19477 1.906223,6.5893 7.438718,12.72286 16.226052,17.9889 3.622313,2.17076 9.159497,4.89053 14.076217,6.91398 2.066607,0.8505 3.727987,1.57585 3.691953,1.61189 -0.03604,0.036 -1.986626,-0.40123 -4.334647,-0.97169 -19.553709,-4.75065 -31.016736,-12.28296 -37.851861,-24.87231 -1.499045,-2.76103 -4.008824,-9.32553 -4.020992,-10.51718 -0.0024,-0.23904 0.623231,-0.33073 2.256734,-0.33073 6.867462,0 12.147281,-2.80315 16.022784,-8.50677 0.558821,-0.82243 1.912808,-3.13191 3.008857,-5.1322 l 1.992824,-3.63689 -1.422935,1.34576 c -1.969974,1.86312 -5.089689,3.84355 -7.54806,4.7916 -3.690115,1.42306 -7.453622,1.66405 -8.811813,0.56425 -0.578334,-0.4683 -0.57486,-0.47158 0.978011,-0.92302 4.18628,-1.21698 9.038212,-4.79531 10.57012,-7.79552 0.375857,-0.73611 0.793848,-2.40305 0.602573,-2.40305 -0.06416,0 -0.996355,0.57927 -2.071542,1.28727 -4.374933,2.88084 -9.15901,5.07565 -13.354561,6.12673 -1.832755,0.45914 -2.865493,0.55938 -4.915119,0.47706 -1.549646,-0.0623 -2.724355,-0.23374 -2.916379,-0.42577 -0.252331,-0.25233 -0.125063,-0.32204 0.591273,-0.3239 1.355169,-0.004 5.774629,-1.61264 7.904731,-2.87811 2.902776,-1.7245 5.750478,-3.98966 8.406332,-6.68668 2.334683,-2.37087 4.136311,-4.45627 3.982638,-4.60994 -0.04005,-0.0401 -2.154947,0.96828 -4.69977,2.24074 -11.004155,5.50229 -20.525453,7.68387 -25.971693,5.9508 -2.230753,-0.70986 -2.025401,-1.02248 0.694412,-1.05716 10.423214,-0.13287 25.32726,-9.12008 30.028933,-18.10757 l 1.045874,-1.99925 -0.428659,-1.17575 c -0.252362,-0.69219 -0.43619,-2.0463 -0.446963,-3.29242 -0.01511,-1.7483 0.09633,-2.3469 0.640378,-3.43959 0.585444,-1.17582 0.903965,-1.4553 2.864684,-2.51354 1.263171,-0.68176 2.361703,-1.47333 2.570311,-1.85208 0.211865,-0.38467 0.372099,-1.49183 0.382918,-2.64584 0.03673,-3.91693 1.095367,-7.78949 3.108386,-11.37063 l 0.970348,-1.72624 0.177925,1.05833 c 0.09786,0.58209 0.509548,4.19397 0.914863,8.02641 l 0.736939,6.96806 -0.639054,2.42464 c -0.505478,1.91784 -0.639053,3.08829 -0.639053,5.59964 0,2.93056 0.05443,3.27813 0.706964,4.51454 0.388831,0.73674 0.894847,1.49546 1.124479,1.68604 0.354724,0.2944 0.417515,1.13903 0.417515,5.61621 0,10.86058 0.995746,14.80606 5.733963,22.71992 7.824441,13.06851 17.916985,21.87517 29.077309,25.3726 5.375584,1.6846 8.059305,1.99841 17.047065,1.99329 6.31394,-0.004 8.7894,-0.10734 11.37708,-0.4768 14.77994,-2.11019 28.37678,-6.30272 40.87813,-12.6046 8.77126,-4.42157 14.16109,-8.1586 19.44687,-13.48346 l 3.30729,-3.33175 1.23241,-3.1707 c 1.89211,-4.86797 4.72135,-14.23847 4.39697,-14.56286 -0.0464,-0.0464 -0.4763,0.67159 -0.95534,1.59553 -0.47904,0.92394 -1.79919,2.79194 -2.93368,4.15112 -12.18044,14.59287 -45.45067,30.00756 -72.78098,33.72072 -2.17823,0.29594 -5.15896,0.45289 -8.73125,0.45975 -4.610974,0.009 -5.825086,-0.0763 -8.100117,-0.5678 -1.471885,-0.31802 -3.049415,-0.73515 -3.505623,-0.92697 -0.795456,-0.33447 -0.664019,-0.37939 3.205321,-1.09539 18.387519,-3.40255 30.690859,-8.16219 36.566159,-14.14588 l 1.57511,-1.60417 -2.34638,0.92115 c -7.06227,2.77253 -21.91667,5.67977 -34.538224,6.75967 -8.065611,0.6901 -14.299387,-0.67393 -19.649696,-4.29961 -2.24064,-1.51839 -4.310243,-3.43728 -9.189887,-8.52069 -6.540553,-6.81366 -7.14375,-8.26341 -7.14375,-17.16953 0,-7.25478 0.303472,-8.50038 3.655875,-15.00554 4.780481,-9.27626 5.717294,-11.52712 6.882511,-16.53645 0.465309,-2.00039 1.367864,-7.89483 1.367864,-8.93329 0,-0.47801 2.565469,2.13992 3.827941,3.9062 2.816286,3.94019 4.180311,8.68913 3.72281,12.9612 l -0.191852,1.79149 -0.926143,-1.6878 c -0.509378,-0.92829 -1.348584,-2.12684 -1.864899,-2.66344 -0.879205,-0.91374 -2.325945,-1.75135 -2.582262,-1.49503 -0.06276,0.0628 0.0591,0.68963 0.270798,1.39305 0.294614,0.97892 0.369919,2.58973 0.321027,6.86682 l -0.06388,5.58788 0.757459,1.63966 c 0.416603,0.90181 0.98215,1.84299 1.256771,2.09152 0.813726,0.73642 0.5764,0.89317 -0.695902,0.45966 -1.578295,-0.53778 -3.182037,-2.22094 -4.386363,-4.60356 l -0.964472,-1.9081 -0.823576,1.68958 c -2.503025,5.13496 -2.041544,10.58724 1.278056,15.09997 3.181866,4.32549 8.587735,6.83081 13.965433,6.47219 2.076985,-0.1385 2.172155,-0.12112 1.919727,0.35055 -0.440214,0.82254 -2.993162,1.87969 -5.610005,2.32304 -4.691854,0.79489 -10.092778,-0.3661 -14.065004,-3.02345 -1.141918,-0.76392 -1.915824,-1.16646 -1.719792,-0.89454 1.571533,2.17996 5.133758,6.53219 6.6713,8.15082 6.227844,6.5563 15.102141,10.28406 23.186159,9.73964 5.489966,-0.36973 13.251756,-1.60433 18.388546,-2.92491 3.2416,-0.83336 6.02849,-1.73427 5.86635,-1.89641 -0.0663,-0.0663 -1.71102,-0.66003 -3.65492,-1.31938 -10.49807,-3.56084 -17.961633,-9.13425 -21.572629,-16.10935 -2.956309,-5.71048 -3.350353,-11.06 -1.412311,-19.17339 1.138002,-4.76411 1.415632,-7.28644 1.252262,-11.37708 -0.36329,-9.09642 -4.318432,-16.7194 -11.42877,-22.02722 -2.282357,-1.70376 -5.752426,-3.54876 -8.076026,-4.29392 -0.800364,-0.25668 -1.552535,-0.55533 -1.671489,-0.66367 -0.30127,-0.27439 5.035412,-1.71551 9.761654,-2.63604 8.979397,-1.7489 16.231069,-2.19148 20.352539,-1.24213 5.87791,1.35393 10.72351,4.09528 15.22726,8.6147 2.48712,2.49576 7.91094,9.01925 7.49887,9.01925 -0.0881,0 -0.52308,-0.30538 -0.96667,-0.67863 -3.2709,-2.75229 -9.99341,-4.35443 -15.01258,-3.57788 -2.25763,0.34929 -5.10763,1.56618 -5.53402,2.3629 -0.28059,0.52429 -0.23497,0.53317 2.02817,0.39496 4.73791,-0.28933 8.82634,1.25919 12.23713,4.6349 4.75336,4.70447 5.78375,10.74091 2.89333,16.9503 l -0.79042,1.69802 -0.89639,-1.87047 c -1.14714,-2.39367 -2.4507,-3.82623 -4.14487,-4.55504 -0.74052,-0.31856 -1.3904,-0.5352 -1.44419,-0.48141 -0.0538,0.0538 0.29876,0.65554 0.78343,1.33724 1.5465,2.17519 1.83847,3.8393 1.63471,9.3174 -0.14072,3.78323 -0.0974,5.06165 0.21046,6.21735 0.21318,0.80017 0.34751,1.49496 0.29849,1.54397 -0.049,0.049 -0.51477,-0.11288 -1.03502,-0.35976 -1.22502,-0.5813 -2.33295,-1.86067 -3.38373,-3.90728 l -0.84314,-1.64219 -0.21953,1.32291 c -0.43398,2.6151 0.22335,6.89911 1.50232,9.79108 1.27362,2.87989 5.5658,8.26026 5.97613,7.49125 0.10242,-0.19195 0.26882,-1.33193 0.36979,-2.53331 0.24477,-2.91267 1.24595,-7.65268 2.24835,-10.64464 1.04974,-3.13326 2.15235,-5.5055 4.9736,-10.70054 1.25893,-2.3182 2.69838,-5.41066 3.19876,-6.87214 0.8306,-2.42593 0.93167,-3.06036 1.16115,-7.2882 0.38632,-7.11738 -0.17332,-10.49157 -2.34209,-14.12097 -1.45976,-2.44289 -11.17934,-12.0733 -14.17209,-14.04206 -2.70996,-1.78273 -5.86333,-3.11311 -8.96197,-3.78095 -3.20211,-0.69014 -10.551666,-0.62509 -16.38586,0.14504 -11.859766,1.56552 -22.377104,3.79879 -28.212312,5.99066 l -1.817897,0.68285 1.455209,-1.47692 c 5.539001,-5.62163 15.045176,-9.66306 26.590625,-11.30465 2.806763,-0.39908 15.983155,-0.41659 18.732345,-0.0249 1.72709,0.24607 1.77997,0.23745 1.32291,-0.2156 -1.04623,-1.03705 -4.92305,-3.10095 -7.31413,-3.89381 -4.440434,-1.47242 -8.006486,-1.95898 -14.328625,-1.95501 -4.12818,0.003 -6.621238,0.14592 -9.699834,0.55767 -10.255004,1.37157 -22.174595,4.56127 -33.42725,8.94518 -16.655073,6.48863 -30.246954,17.6047 -38.9680634,31.86986 -0.928515,1.51878 -1.129348,2.13375 -1.490325,4.56353 -1.661544,11.18406 -1.022877,23.33172 1.840179,35.0008 4.165902,16.97914 13.1145634,33.06086 25.1703164,45.23381 8.748776,8.83382 19.800724,15.94389 32.772179,21.08339 9.242912,3.66219 19.66573,5.96467 29.491339,6.51487 5.265259,0.29484 5.309402,0.2949 10.186454,0.0145 z M 59.179414,188.08806 c -0.265192,-1.36117 0.246954,-3.8069 1.363863,-6.51309 l 0.918959,-2.22655 -0.965568,-2.11232 c -2.350439,-5.14193 -2.601484,-9.74879 -0.825883,-15.15556 0.530227,-1.61456 0.964051,-3.01354 0.964051,-3.10885 0,-0.31675 -2.247905,-0.17906 -3.837881,0.23508 -2.005659,0.52241 -4.390459,1.69823 -6.158641,3.03652 -0.765212,0.57917 -1.452848,1.05303 -1.528079,1.05303 -0.199787,0 1.897057,-3.03979 2.829062,-4.10129 1.073465,-1.22261 3.60426,-2.88142 5.449239,-3.57172 1.693246,-0.63353 4.526138,-1.2313 6.636116,-1.4003 1.374081,-0.11006 1.432634,-0.0854 2.624322,1.10631 1.452917,1.45292 2.285897,3.16567 2.846462,5.85281 0.227393,1.09004 0.48478,2.21183 0.571968,2.49286 0.08949,0.28845 -0.78378,-0.34527 -2.005293,-1.45521 -1.190098,-1.08139 -2.269802,-2.00361 -2.399342,-2.04937 -0.374044,-0.13215 -2.036503,2.32512 -2.651831,3.91966 -1.218446,3.15744 -0.963788,6.83832 0.853072,12.33055 l 1.059381,3.20242 -1.639414,2.21108 c -1.615477,2.1788 -2.933906,4.51052 -3.579291,6.33021 l -0.329441,0.92887 z m 75.007706,21.76801 c 2.77742,-0.78416 4.88803,-1.98006 6.75862,-3.82954 1.37345,-1.35795 3.55395,-4.36563 3.16498,-4.36563 -0.0701,0 -0.69413,0.43582 -1.38661,0.96849 -2.02492,1.55759 -5.31737,2.97537 -7.72422,3.32617 -1.1642,0.16969 -2.18803,0.23723 -2.27516,0.1501 -0.0871,-0.0871 0.26253,-1.39074 0.77703,-2.8969 2.0038,-5.86605 1.80616,-10.07289 -0.73524,-15.64963 l -0.91759,-2.01353 0.76553,-1.82204 c 1.40015,-3.33245 1.95102,-6.47069 1.30996,-7.46266 -0.22589,-0.34953 -0.25696,-0.34786 -0.26053,0.014 -0.008,0.84104 -2.09533,4.68799 -3.68966,6.801 l -1.64849,2.18479 0.94748,2.84346 c 2.2796,6.84125 2.30065,10.87821 0.0759,14.56716 -1.55871,2.58459 -1.47144,2.5839 -4.06102,0.032 -1.25714,-1.23886 -2.19948,-1.99742 -2.11662,-1.70384 0.0821,0.29104 0.38512,1.62306 0.67328,2.96003 0.62716,2.90979 1.01966,3.72207 2.63344,5.4499 l 1.22847,1.31528 2.24896,-0.15443 c 1.23693,-0.0849 3.14108,-0.40631 4.23145,-0.71416 z m 6.49561,-11.50246 c 1.49899,-3.13547 1.97,-4.97559 2.13331,-8.33437 0.0743,-1.52797 0.19081,-3.04955 0.25894,-3.38129 0.16428,-0.79987 1.08902,-1.57183 3.23448,-2.7001 1.39167,-0.73186 1.90249,-1.17452 2.39696,-2.07713 0.87926,-1.60499 1.0348,-3.99632 0.41528,-6.38488 l -0.48382,-1.86538 0.60735,-1.25446 c 2.98391,-6.16329 11.26076,-12.89447 20.39794,-16.58869 3.41056,-1.37891 8.69954,-2.42159 11.25325,-2.21849 0.65019,0.0517 1.18217,0.0185 1.18217,-0.0737 0,-0.49964 -2.94908,-1.37372 -5.02709,-1.48997 -5.77876,-0.3233 -16.47655,2.921 -24.81712,7.52625 -1.26647,0.69928 -2.41186,1.31774 -2.54531,1.37435 -0.55195,0.23414 1.18809,-1.86437 3.67384,-4.43069 2.82389,-2.91544 5.58951,-5.14251 8.62688,-6.94698 2.09401,-1.24402 6.54214,-2.8745 7.85182,-2.8781 0.98236,-0.003 1.15463,-0.40387 0.26458,-0.61616 -2.63427,-0.62829 -5.55058,-0.37891 -9.32656,0.79755 -2.86121,0.89145 -8.50866,3.63758 -11.17865,5.43572 -2.16584,1.45863 -2.18279,1.46461 -2.18033,0.76956 0.007,-1.8835 3.44304,-5.73772 6.80019,-7.62707 0.98796,-0.55601 2.74055,-1.3215 3.89466,-1.70108 l 2.09836,-0.69016 -0.70937,-0.4648 c -1.14811,-0.75227 -3.69577,-0.82052 -6.27943,-0.16821 -3.82007,0.96446 -7.16893,2.78341 -10.01618,5.44033 l -1.43117,1.33549 1.28341,-2.38125 c 3.39474,-6.29858 5.43625,-9.09714 8.0933,-11.09448 3.14418,-2.36352 6.98318,-3.58478 11.27886,-3.58804 2.22234,-0.002 2.44739,-0.0478 2.44739,-0.50161 0,-0.94092 -2.13259,-6.68534 -3.48139,-9.37756 -1.91654,-3.82547 -4.18512,-7.02273 -7.22776,-10.18659 -5.57171,-5.7937 -12.20875,-9.76416 -21.76908,-13.0229 -3.69324,-1.258878 -13.15346,-3.78145 -13.61025,-3.629183 -0.12244,0.04081 1.23792,0.65224 3.02303,1.358726 1.78511,0.706486 5.50785,2.393018 8.27274,3.747847 13.71198,6.71903 20.96857,13.94354 23.00684,22.90514 0.27297,1.20012 0.34282,1.97939 0.18223,2.03292 -0.14322,0.0477 -1.19263,0.54255 -2.33203,1.09956 -4.65851,2.27742 -7.76521,5.17527 -11.45466,10.68458 l -2.09501,3.1284 -0.63428,-1.01174 c -0.34884,-0.55645 -1.50758,-2.50001 -2.57495,-4.31902 -3.59151,-6.12061 -6.01822,-9.47004 -9.12008,-12.58786 -1.60356,-1.61181 -3.6597,-3.38491 -4.5692,-3.94021 l -1.65365,-1.00965 v -1.26501 c 0,-0.98931 0.15619,-1.45063 0.71666,-2.11671 0.78456,-0.93239 2.48443,-1.81979 3.50344,-1.82892 0.93957,-0.008 0.36231,-0.41056 -1.09612,-0.76359 -1.75893,-0.42577 -3.80098,-0.37245 -4.79077,0.12509 -0.46571,0.23411 -1.32901,0.89043 -1.91844,1.45849 l -1.07169,1.03284 -3.2518,-1.52384 -3.25181,-1.52383 0.14391,-0.88678 c 0.36159,-2.22827 2.05765,-4.01958 4.76489,-5.03249 1.82343,-0.68223 5.68349,-1.20346 7.4037,-0.99972 2.04502,0.2422 1.15781,-0.27302 -1.73283,-1.00629 -4.84667,-1.22946 -9.11468,-1.14768 -12.24015,0.23455 -1.81499,0.80268 -3.96815,2.79201 -4.80114,4.43584 -0.60765,1.19912 -0.66842,1.24257 -1.36266,0.9742 -3.643804,-1.40856 -15.028079,-1.99871 -22.766393,-1.1802 -26.33486,2.78553 -49.780919,13.81929 -62.05577,29.20355 -1.659533,2.07991 -4.051428,5.69309 -4.939096,7.46095 -0.5534634,1.10227 -0.4260724,1.0086 1.716572,-1.26218 15.178263,-16.08593 51.290543,-28.87343 77.058076,-27.28658 10.230702,0.63005 17.241131,2.99442 24.705781,8.33241 2.69237,1.92532 8.17646,7.17258 10.47682,10.02439 4.20613,5.21441 9.21144,13.62486 10.39573,17.468 1.17722,3.82021 1.36481,5.36264 1.51231,12.43481 l 0.14346,6.87856 0.77208,1.12218 c 1.82286,2.64943 2.09036,5.93467 0.88163,10.82752 l -0.72037,2.916 0.82387,7.68666 c 0.45312,4.22767 0.82765,7.84832 0.83228,8.04589 0.0147,0.6262 0.78956,-0.57486 1.98739,-3.08037 z m 2.58481,-17.53808 c -0.96921,-0.61628 -1.17461,-3.66546 -0.33922,-5.03568 0.98919,-1.62246 2.37937,-0.40777 2.40939,2.10524 0.0276,2.30808 -0.92603,3.65795 -2.07017,2.93044 z m -93.090614,8.68213 c 1.457547,-1.61057 0.555199,-6.27606 -1.091626,-5.64411 -1.476213,0.56648 -1.501664,5.39711 -0.03155,5.9886 0.553672,0.22277 0.631383,0.19894 1.123176,-0.34449 z"
       id="path37" />
  </g>
</svg>
